inDegrees=no
num_controls=7
num_derivatives=13
num_iterations=137
num_multipliers=7
num_parameters=0
num_slacks=7
num_states=26
objective=6.245660
objective_accelerations=0.739476
objective_balance=0.073448
objective_effort=0.558905
objective_height=4.849232
objective_ligament=0.024598
solver_duration=1385.983367
status=Solve_Succeeded
success=true
DataType=double
version=3
OpenSimVersion=4.4-2022-07-23-0e9fedc
endheader
time	/jointset/ground_pelvis/pelvis_tilt/value	/jointset/ground_pelvis/pelvis_tx/value	/jointset/ground_pelvis/pelvis_ty/value	/jointset/hip_l/hip_flexion_l/value	/jointset/hip_l/hip_adduction_l/value	/jointset/hip_l/hip_rotation_l/value	/jointset/back/lumbar_extension/value	/jointset/patellofemoral_l/patellar_flexion_l/value	/jointset/knee_l/knee_flexion_l/value	/jointset/knee_l/knee_adduction_l/value	/jointset/knee_l/knee_rotation_l/value	/jointset/ankle_l/ankle_angle_l/value	/jointset/subtalar_l/subtalar_angle_l/value	/jointset/ground_pelvis/pelvis_tilt/speed	/jointset/ground_pelvis/pelvis_tx/speed	/jointset/ground_pelvis/pelvis_ty/speed	/jointset/hip_l/hip_flexion_l/speed	/jointset/hip_l/hip_adduction_l/speed	/jointset/hip_l/hip_rotation_l/speed	/jointset/back/lumbar_extension/speed	/jointset/patellofemoral_l/patellar_flexion_l/speed	/jointset/knee_l/knee_flexion_l/speed	/jointset/knee_l/knee_adduction_l/speed	/jointset/knee_l/knee_rotation_l/speed	/jointset/ankle_l/ankle_angle_l/speed	/jointset/subtalar_l/subtalar_angle_l/speed	/forceset/tau_hip_flexion_l	/forceset/tau_hip_adduction_l	/forceset/tau_hip_rotation_l	/forceset/tau_knee_flexion_l	/forceset/tau_ankle_angle_l	/forceset/tau_subtalar_angle_l	/forceset/tau_lumbar_extension	lambda_cid13_p0	lambda_cid13_p1	lambda_cid13_p2	lambda_cid13_p3	lambda_cid13_p4	lambda_cid13_p5	lambda_cid14_p0	/jointset/ground_pelvis/pelvis_tilt/accel	/jointset/ground_pelvis/pelvis_tx/accel	/jointset/ground_pelvis/pelvis_ty/accel	/jointset/hip_l/hip_flexion_l/accel	/jointset/hip_l/hip_adduction_l/accel	/jointset/hip_l/hip_rotation_l/accel	/jointset/back/lumbar_extension/accel	/jointset/patellofemoral_l/patellar_flexion_l/accel	/jointset/knee_l/knee_flexion_l/accel	/jointset/knee_l/knee_adduction_l/accel	/jointset/knee_l/knee_rotation_l/accel	/jointset/ankle_l/ankle_angle_l/accel	/jointset/subtalar_l/subtalar_angle_l/accel	gamma_cid13_p0	gamma_cid13_p1	gamma_cid13_p2	gamma_cid13_p3	gamma_cid13_p4	gamma_cid13_p5	gamma_cid14_p0
1.5	-0.01223702400062121	-0.009024726568569884	0.8304171712673933	0.7721450934798744	-0.308225026361644	-0.1350605231886005	-0.8046218971195811	0.8943630352690666	0.8943630352687302	-0.03270559578031259	-0.1745305667730175	0.2085232857441232	0.06339032936620584	0.371456858386069	0.2125659168878579	0.533328535966991	-2.257530177987432	0.06227708711463308	-0.5498074385341664	0.8381817641359813	-2.312552903131095	-2.312552903131796	-0.3500632624807785	0.0001529271487923995	-0.5762203275500195	-0.1586121643689678	-0.2113380270842121	0.02497421930693256	-0.01091310631543229	-0.235704140629434	0.03694426351684493	0.04862138538349441	0.2860210706486676	-28.48506458398086	-17.81127186600468	4.307153440316777	-7.90298719345554	-659.098229281312	-76.22817938220237	-10.80724558105775	0.1278188966855055	0.7382425202657931	-0.8007311120105741	-0.8023465128363787	0.2538674626281775	-0.6334821506336915	2.100578833095792	-1.172306957490509	-1.172306957490504	-0.2969377784230199	0.076067698361427	-0.5794993279576777	0.1892934197207771	2.914165824691114e-07	2.231073012204929e-06	-8.152268538782908e-07	2.0774722873901e-07	3.8800919156338e-07	9.742847421507751e-07	3.256578576977518e-07
1.51	-0.008516341178907065	-0.00686241986381649	0.8357093319000409	0.7495318432808865	-0.3075902951365593	-0.1405912534662352	-0.7961364660441271	0.8711815914434238	0.8711815914431864	-0.03622150961297385	-0.1745272456877227	0.202732734999484	0.06181298948607267	0.3726221058206128	0.2198644704695158	0.5249903370718297	-2.26482342322301	0.06469161210033295	-0.5563121283462126	0.8587933703459631	-2.323416485481346	-2.323416485482155	-0.3530620875317625	0.000526758130102534	-0.5817855433373991	-0.1567905076107965	-0.2036456109013977	0.02444313903251287	-0.01077048867702154	-0.2305182181873121	0.03760371629525257	0.0479145282492247	0.2783915615982126	-27.99897865268856	-17.73002948173474	4.454840596583337	-7.633785102036467	-653.4665538103555	-75.96815413888572	-11.74286594513973	0.1022505117686419	0.7210595254783206	-0.8672748911829986	-0.6483328059257034	0.2385043526612218	-0.6546767153523612	2.024789425166414	-0.9955394214800961	-0.9955394214963714	-0.292416509976918	0.02023854139561622	-0.5292992980703256	0.1881391189048818	2.795590761513118e-07	2.19555859544441e-06	-7.743136418817474e-07	2.05239294246071e-07	3.873795860442853e-07	9.692657687779008e-07	3.154083793464404e-07
1.52	-0.004785731313821907	-0.004628048073571871	0.8409147284211533	0.7268545567741607	-0.3069307667944085	-0.146186173505664	-0.7874482513245299	0.847901080684762	0.8479010806845412	-0.03976562402455162	-0.174519746744254	0.1968896787782037	0.06025577363652928	0.3734422670521674	0.2269789339861032	0.515975713659778	-2.270337439538945	0.06723651053071888	-0.5626453909127612	0.8787384929645206	-2.332366289739109	-2.332366289740027	-0.3557033782443532	0.000988498846532123	-0.5867214228824668	-0.1545873582510571	-0.1959531947185811	0.02391205875847034	-0.01062787103978923	-0.2253322957452183	0.03826316907376569	0.0472076711154828	0.2707620525476857	-27.51262911260002	-17.65262411292784	4.607469955579561	-7.402767526005451	-647.8516901442163	-75.75971794377337	-12.66388901378719	0.05880165608886418	0.701424507250921	-0.9360160153887686	-0.4465007289076098	0.2799421515654796	-0.5991967015344261	1.967282114811644	-0.7895513389926022	-0.7895513389926034	-0.2254309107441823	0.09364964538474146	-0.4536320794961409	0.2655919400339332	3.499712508308983e-07	1.841669771561439e-06	-1.377802082151062e-06	9.6493215310892e-08	4.917730311823776e-07	9.776718879611604e-07	3.362395678822926e-07
1.53	-0.001048575623484859	-0.002323303771942671	0.8460267830677834	0.7041303785184271	-0.3062456249514652	-0.1518401466877205	-0.7785643161873606	0.8245404888701338	0.8245404888698704	-0.04333763431618467	-0.1745052271819171	0.1910005457198851	0.05872188632891669	0.3739146169137175	0.2339532782765291	0.5063341079338094	-2.274209511636298	0.06980745829314937	-0.5681177544433946	0.8979251645248182	-2.339424212523477	-2.339424212523348	-0.3586383570056526	0.001934958408808535	-0.5909659988301635	-0.1521213587021315	-0.1872042337959192	0.02202613716814286	-0.01040889006620893	-0.2224486500753678	0.04189752351841025	0.0465309185089831	0.2625767539469832	-26.08990723288803	-17.72171116920744	4.748575132418082	-7.990425171748345	-642.694149403005	-76.03994329867737	-13.56744773778836	0.03036227742322837	0.692893422472881	-0.9932343355971459	-0.3141883899364347	0.2484216001718896	-0.5160309634594674	1.875854186590591	-0.6148174320760529	-0.6148174319188568	-0.3184580891013492	0.09744269126962038	-0.3889539806001583	0.2476845398261323	5.077949615702066e-07	1.149508140110866e-06	-2.665967277952843e-06	-1.251308920941658e-07	7.0775346764373e-07	1.000342167985312e-06	3.900939649857556e-07
